<svg preserveAspectRatio="none" width="100%" height="100%" overflow="visible" style="display: block;" viewBox="0 0 710 91" fill="none" xmlns="http://www.w3.org/2000/svg">
<g id="Group 16">
<g id="Layer_1" clip-path="url(#clip0_2001_15)">
<path id="Vector" d="M28.68 90.66H10.43V88.28C11.44 88.11 12.53 87.98 13.59 87.72C16.72 86.96 18.15 84.62 17.54 81.35C16.29 82.04 15.09 82.85 13.78 83.4C7.07 86.25 0.14 81.59 0 74.33C-0.08 70.03 1.96 66.83 4.74 63.9C6.95 61.58 9.17 59.26 11.42 56.98C14.66 53.72 17.56 50.21 19.43 46C20.78 48.12 21.88 50.37 23.46 52.2C26.42 55.62 29.64 58.82 32.78 62.08C35.44 64.84 37.96 67.67 38.82 71.58C39.73 75.71 38.3 80.12 35.35 82.2C31.82 84.69 26.95 84.77 23.27 82.39C22.77 82.07 22.29 81.71 21.8 81.36C20.68 85.32 22.95 88.05 28.68 88.28V90.66ZM5.1 78.7C4.04 75.27 4.92 72.31 7.12 69.7C8.8 67.71 10.62 65.83 12.4 63.92C15.05 61.08 17.72 58.25 20.4 55.43C20.99 54.81 21 54.27 20.4 53.67C20.11 53.38 19.87 53.04 19.54 52.64C18.56 53.86 17.73 55.05 16.74 56.09C13.73 59.25 10.65 62.34 7.63 65.49C5.69 67.51 3.93 69.67 3.44 72.55C3.06 74.82 3.35 76.94 5.09 78.69L5.1 78.7Z" fill="var(--fill-0, #F7E7CE)"/>
</g>
<g id="Layer_1_2" clip-path="url(#clip1_2001_15)">
<path id="Vector_2" d="M698.68 90.66H680.43V88.28C681.44 88.11 682.53 87.98 683.59 87.72C686.72 86.96 688.15 84.62 687.54 81.35C686.29 82.04 685.09 82.85 683.78 83.4C677.07 86.25 670.14 81.59 670 74.33C669.92 70.03 671.96 66.83 674.74 63.9C676.95 61.58 679.17 59.26 681.42 56.98C684.66 53.72 687.56 50.21 689.43 46C690.78 48.12 691.88 50.37 693.46 52.2C696.42 55.62 699.64 58.82 702.78 62.08C705.44 64.84 707.96 67.67 708.82 71.58C709.73 75.71 708.3 80.12 705.35 82.2C701.82 84.69 696.95 84.77 693.27 82.39C692.77 82.07 692.29 81.71 691.8 81.36C690.68 85.32 692.95 88.05 698.68 88.28V90.66ZM675.1 78.7C674.04 75.27 674.92 72.31 677.12 69.7C678.8 67.71 680.62 65.83 682.4 63.92C685.05 61.08 687.72 58.25 690.4 55.43C690.99 54.81 691 54.27 690.4 53.67C690.11 53.38 689.87 53.04 689.54 52.64C688.56 53.86 687.73 55.05 686.74 56.09C683.73 59.25 680.65 62.34 677.63 65.49C675.69 67.51 673.93 69.67 673.44 72.55C673.06 74.82 673.35 76.94 675.09 78.69L675.1 78.7Z" fill="var(--fill-0, #F7E7CE)"/>
</g>
<g id="Layer_1_3" clip-path="url(#clip2_2001_15)">
<path id="Vector_3" d="M183.68 45.66H165.43V43.28C166.44 43.11 167.53 42.98 168.59 42.72C171.72 41.96 173.15 39.62 172.54 36.35C171.29 37.04 170.09 37.85 168.78 38.4C162.07 41.25 155.14 36.59 155 29.33C154.92 25.03 156.96 21.83 159.74 18.9C161.95 16.58 164.17 14.26 166.42 11.98C169.66 8.72 172.56 5.21 174.43 1C175.78 3.12 176.88 5.37 178.46 7.2C181.42 10.62 184.64 13.82 187.78 17.08C190.44 19.84 192.96 22.67 193.82 26.58C194.73 30.71 193.3 35.12 190.35 37.2C186.82 39.69 181.95 39.77 178.27 37.39C177.77 37.07 177.29 36.71 176.8 36.36C175.68 40.32 177.95 43.05 183.68 43.28V45.66ZM160.1 33.7C159.04 30.27 159.92 27.31 162.12 24.7C163.8 22.71 165.62 20.83 167.4 18.92C170.05 16.08 172.72 13.25 175.4 10.43C175.99 9.81 176 9.27 175.4 8.67C175.11 8.38 174.87 8.04 174.54 7.64C173.56 8.86 172.73 10.05 171.74 11.09C168.73 14.25 165.65 17.34 162.63 20.49C160.69 22.51 158.93 24.67 158.44 27.55C158.06 29.82 158.35 31.94 160.09 33.69L160.1 33.7Z" fill="var(--fill-0, #F7E7CE)"/>
</g>
<g id="Layer_1_4" clip-path="url(#clip3_2001_15)">
<path id="Vector_4" d="M538.68 44.66H520.43V42.28C521.44 42.11 522.53 41.98 523.59 41.72C526.72 40.96 528.15 38.62 527.54 35.35C526.29 36.04 525.09 36.85 523.78 37.4C517.07 40.25 510.14 35.59 510 28.33C509.92 24.03 511.96 20.83 514.74 17.9C516.95 15.58 519.17 13.26 521.42 10.98C524.66 7.72 527.56 4.21 529.43 0C530.78 2.12 531.88 4.37 533.46 6.2C536.42 9.62 539.64 12.82 542.78 16.08C545.44 18.84 547.96 21.67 548.82 25.58C549.73 29.71 548.3 34.12 545.35 36.2C541.82 38.69 536.95 38.77 533.27 36.39C532.77 36.07 532.29 35.71 531.8 35.36C530.68 39.32 532.95 42.05 538.68 42.28V44.66ZM515.1 32.7C514.04 29.27 514.92 26.31 517.12 23.7C518.8 21.71 520.62 19.83 522.4 17.92C525.05 15.08 527.72 12.25 530.4 9.43C530.99 8.81 531 8.27 530.4 7.67C530.11 7.38 529.87 7.04 529.54 6.64C528.56 7.86 527.73 9.05 526.74 10.09C523.73 13.25 520.65 16.34 517.63 19.49C515.69 21.51 513.93 23.67 513.44 26.55C513.06 28.82 513.35 30.94 515.09 32.69L515.1 32.7Z" fill="var(--fill-0, #F7E7CE)"/>
</g>
<g id="Layer_1_5" clip-path="url(#clip4_2001_15)">
<path id="Vector_5" d="M363.68 90.66H345.43V88.28C346.44 88.11 347.53 87.98 348.59 87.72C351.72 86.96 353.15 84.62 352.54 81.35C351.29 82.04 350.09 82.85 348.78 83.4C342.07 86.25 335.14 81.59 335 74.33C334.92 70.03 336.96 66.83 339.74 63.9C341.95 61.58 344.17 59.26 346.42 56.98C349.66 53.72 352.56 50.21 354.43 46C355.78 48.12 356.88 50.37 358.46 52.2C361.42 55.62 364.64 58.82 367.78 62.08C370.44 64.84 372.96 67.67 373.82 71.58C374.73 75.71 373.3 80.12 370.35 82.2C366.82 84.69 361.95 84.77 358.27 82.39C357.77 82.07 357.29 81.71 356.8 81.36C355.68 85.32 357.95 88.05 363.68 88.28V90.66ZM340.1 78.7C339.04 75.27 339.92 72.31 342.12 69.7C343.8 67.71 345.62 65.83 347.4 63.92C350.05 61.08 352.72 58.25 355.4 55.43C355.99 54.81 356 54.27 355.4 53.67C355.11 53.38 354.87 53.04 354.54 52.64C353.56 53.86 352.73 55.05 351.74 56.09C348.73 59.25 345.65 62.34 342.63 65.49C340.69 67.51 338.93 69.67 338.44 72.55C338.06 74.82 338.35 76.94 340.09 78.69L340.1 78.7Z" fill="var(--fill-0, #F7E7CE)"/>
</g>
<path id="Vector 1" d="M20 45H174.926H333.374H505.905H689" stroke="var(--stroke-0, #CBB682)"/>
</g>
<defs>
<clipPath id="clip0_2001_15">
<rect width="39.09" height="44.66" fill="white" transform="translate(0 46)"/>
</clipPath>
<clipPath id="clip1_2001_15">
<rect width="39.09" height="44.66" fill="white" transform="translate(670 46)"/>
</clipPath>
<clipPath id="clip2_2001_15">
<rect width="39.09" height="44.66" fill="white" transform="translate(155 1)"/>
</clipPath>
<clipPath id="clip3_2001_15">
<rect width="39.09" height="44.66" fill="white" transform="translate(510)"/>
</clipPath>
<clipPath id="clip4_2001_15">
<rect width="39.09" height="44.66" fill="white" transform="translate(335 46)"/>
</clipPath>
</defs>
</svg>
